<svg width="73" height="22" viewBox="0 0 73 22" fill="none" xmlns="http://www.w3.org/2000/svg">
<path d="M9.75781 10.6094C10.5326 10.7734 11.2116 11.0879 11.7949 11.5527C12.3783 12.0085 12.8294 12.5736 13.1484 13.248C13.4674 13.9134 13.627 14.6289 13.627 15.3945C13.627 16.5794 13.3626 17.5957 12.834 18.4434C12.3053 19.2819 11.5625 19.9199 10.6055 20.3574C9.64844 20.7858 8.5319 21 7.25586 21H1.24023H0.529297V1.09375H6.4082C8.48633 1.09375 10.0859 1.52214 11.207 2.37891C12.3372 3.22656 12.9023 4.52995 12.9023 6.28906C12.9023 7.3099 12.6243 8.20312 12.0684 8.96875C11.5124 9.73438 10.7422 10.2812 9.75781 10.6094ZM2.21094 2.5293V10.0078H6.57227C8.05794 10.0078 9.20182 9.6888 10.0039 9.05078C10.806 8.41276 11.207 7.48307 11.207 6.26172C11.207 4.99479 10.806 4.05599 10.0039 3.44531C9.21094 2.83464 8.01237 2.5293 6.4082 2.5293H2.21094ZM7.25586 19.5781C8.22201 19.5781 9.05599 19.4141 9.75781 19.0859C10.4596 18.7487 10.9974 18.2702 11.3711 17.6504C11.7448 17.0215 11.9316 16.2786 11.9316 15.4219C11.9316 14.6471 11.763 13.959 11.4258 13.3574C11.0977 12.7559 10.5918 12.2819 9.9082 11.9355C9.22461 11.5892 8.38151 11.416 7.37891 11.416H2.21094V19.5781H7.25586ZM16.416 13.3848C16.416 11.9538 16.6895 10.6732 17.2363 9.54297C17.7832 8.41276 18.5534 7.52865 19.5469 6.89062C20.5495 6.2526 21.7025 5.93359 23.0059 5.93359C24.3184 5.93359 25.4759 6.2526 26.4785 6.89062C27.4811 7.52865 28.2559 8.41276 28.8027 9.54297C29.3496 10.6732 29.623 11.9538 29.623 13.3848V13.8223C29.623 15.2533 29.3496 16.5339 28.8027 17.6641C28.2559 18.7943 27.4857 19.6784 26.4922 20.3164C25.4987 20.9544 24.3457 21.2734 23.0332 21.2734C21.7207 21.2734 20.5632 20.9544 19.5605 20.3164C18.5579 19.6784 17.7832 18.7943 17.2363 17.6641C16.6895 16.5339 16.416 15.2533 16.416 13.8223V13.3848ZM18.0566 13.8223C18.0566 14.9251 18.248 15.9368 18.6309 16.8574C19.0228 17.778 19.5924 18.5117 20.3398 19.0586C21.0964 19.6055 21.9941 19.8789 23.0332 19.8789C24.0632 19.8789 24.9518 19.6055 25.6992 19.0586C26.4466 18.5117 27.0117 17.778 27.3945 16.8574C27.7865 15.9368 27.9824 14.9251 27.9824 13.8223V13.3848C27.9824 12.3001 27.7865 11.2975 27.3945 10.377C27.0026 9.45638 26.4284 8.7181 25.6719 8.16211C24.9245 7.60612 24.0358 7.32812 23.0059 7.32812C21.9759 7.32812 21.0872 7.60612 20.3398 8.16211C19.5924 8.7181 19.0228 9.45638 18.6309 10.377C18.248 11.2975 18.0566 12.3001 18.0566 13.3848V13.8223ZM32.1113 13.3848C32.1113 11.9538 32.3848 10.6732 32.9316 9.54297C33.4785 8.41276 34.2487 7.52865 35.2422 6.89062C36.2448 6.2526 37.3978 5.93359 38.7012 5.93359C40.0137 5.93359 41.1712 6.2526 42.1738 6.89062C43.1764 7.52865 43.9512 8.41276 44.498 9.54297C45.0449 10.6732 45.3184 11.9538 45.3184 13.3848V13.8223C45.3184 15.2533 45.0449 16.5339 44.498 17.6641C43.9512 18.7943 43.181 19.6784 42.1875 20.3164C41.194 20.9544 40.041 21.2734 38.7285 21.2734C37.416 21.2734 36.2585 20.9544 35.2559 20.3164C34.2533 19.6784 33.4785 18.7943 32.9316 17.6641C32.3848 16.5339 32.1113 15.2533 32.1113 13.8223V13.3848ZM33.752 13.8223C33.752 14.9251 33.9434 15.9368 34.3262 16.8574C34.7181 17.778 35.2878 18.5117 36.0352 19.0586C36.7917 19.6055 37.6895 19.8789 38.7285 19.8789C39.7585 19.8789 40.6471 19.6055 41.3945 19.0586C42.1419 18.5117 42.707 17.778 43.0898 16.8574C43.4818 15.9368 43.6777 14.9251 43.6777 13.8223V13.3848C43.6777 12.3001 43.4818 11.2975 43.0898 10.377C42.6979 9.45638 42.1237 8.7181 41.3672 8.16211C40.6198 7.60612 39.7311 7.32812 38.7012 7.32812C37.6712 7.32812 36.7826 7.60612 36.0352 8.16211C35.2878 8.7181 34.7181 9.45638 34.3262 10.377C33.9434 11.2975 33.752 12.3001 33.752 13.3848V13.8223ZM52.209 13.5488L50.3359 15.3398V21H48.709V0H50.3359V13.4258L51.8809 11.7578L57.5547 6.20703H59.6191L53.3438 12.4414L60.166 21H58.1973L52.209 13.5488ZM67.3301 14.1094C66.1634 13.8633 65.2064 13.5716 64.459 13.2344C63.7207 12.8971 63.1556 12.4642 62.7637 11.9355C62.3717 11.4069 62.1758 10.7461 62.1758 9.95312C62.1758 9.21484 62.39 8.54036 62.8184 7.92969C63.2467 7.31901 63.8529 6.83594 64.6367 6.48047C65.4297 6.11589 66.3457 5.93359 67.3848 5.93359C68.5059 5.93359 69.4766 6.125 70.2969 6.50781C71.1263 6.88151 71.7598 7.4056 72.1973 8.08008C72.6348 8.74544 72.8535 9.50195 72.8535 10.3496H71.1992C71.1992 9.83008 71.0488 9.33789 70.748 8.87305C70.4473 8.4082 70.0052 8.03451 69.4219 7.75195C68.8477 7.4694 68.1686 7.32812 67.3848 7.32812C66.5736 7.32812 65.8991 7.45117 65.3613 7.69727C64.8327 7.94336 64.4408 8.26237 64.1855 8.6543C63.9303 9.04622 63.8027 9.46094 63.8027 9.89844C63.8027 10.3724 63.903 10.7734 64.1035 11.1016C64.3132 11.4297 64.7051 11.7305 65.2793 12.0039C65.8535 12.2773 66.6784 12.5371 67.7539 12.7832C68.9753 13.0658 69.9596 13.3984 70.707 13.7812C71.4635 14.1549 72.0241 14.6152 72.3887 15.1621C72.7533 15.6999 72.9355 16.3607 72.9355 17.1445C72.9355 17.9466 72.7077 18.6621 72.252 19.291C71.8053 19.9199 71.1673 20.4076 70.3379 20.7539C69.5176 21.1003 68.5651 21.2734 67.4805 21.2734C66.2773 21.2734 65.2383 21.0729 64.3633 20.6719C63.4883 20.2617 62.8229 19.7194 62.3672 19.0449C61.9115 18.3613 61.6836 17.6276 61.6836 16.8438H63.3105C63.3835 17.9102 63.821 18.6849 64.623 19.168C65.4342 19.6419 66.3867 19.8789 67.4805 19.8789C68.2826 19.8789 68.9707 19.7559 69.5449 19.5098C70.1191 19.2637 70.5521 18.9401 70.8438 18.5391C71.1445 18.138 71.2949 17.7005 71.2949 17.2266C71.2949 16.5247 71.0124 15.9095 70.4473 15.3809C69.8822 14.8522 68.8431 14.4284 67.3301 14.1094Z" fill="#333333"/>
</svg>